<?xml version="1.0" encoding="utf-8" ?>
<svg baseProfile="full" height="1280" version="1.1" width="788" xmlns="http://www.w3.org/2000/svg" xmlns:ev="http://www.w3.org/2001/xml-events" xmlns:xlink="http://www.w3.org/1999/xlink"><defs /><polyline fill="white" points="383,37 332,46 289,63 285,75 331,61 387,61 437,71 480,88 517,111 547,141 572,176 593,215 599,197 585,151 567,109 539,77 499,57 453,43 399,37" stroke="black" stroke-width="2" /><polyline fill="white" points="375,77 330,81 316,89 367,85 412,99 450,121 466,156 468,104 427,85 377,77" stroke="black" stroke-width="2" /><polyline fill="white" points="280,94 310,115 308,109 295,136 306,169 302,182 288,136 277,101" stroke="black" stroke-width="2" /><polyline fill="white" points="242,104 245,159 243,205 242,143" stroke="black" stroke-width="2" /><polyline fill="white" points="499,113 530,142 557,175 575,210 591,254 596,306 560,290 554,238 525,233 528,196 508,171 497,124" stroke="black" stroke-width="2" /><polyline fill="white" points="186,170 179,194 178,229 214,243 242,238 211,209 195,174" stroke="black" stroke-width="2" /><polyline fill="white" points="303,200 294,239 305,209" stroke="black" stroke-width="2" /><polyline fill="white" points="506,219 502,250" stroke="black" stroke-width="2" /><polyline fill="white" points="159,457 214,462 177,469 189,477 210,474 242,465 261,463" stroke="black" stroke-width="2" /><polyline fill="white" points="355,60 304,69 260,82 230,112 226,138 206,138 194,172 209,207 243,231 227,252 190,239 162,232 157,287 194,302 243,296 244,214 239,203 241,175 237,121 246,130 246,180 266,201 268,247 271,297 317,293 321,241 304,266 330,300 331,289 333,233 358,204 368,214 339,199 340,150 355,149 371,145 379,177 410,148 429,141 446,128 465,161 449,146 432,111 392,96 359,92 361,130 343,94 309,94 335,78 387,77 435,87 471,111 470,131 485,128 499,112 531,140 557,174 572,207 569,174 544,139 513,110 475,88 432,71 381,62 383,117 401,102 338,130 310,117 301,132 307,163 301,193 291,145 272,108 296,102 269,135 241,133 269,144 292,235 308,217 480,103 179,249" stroke="black" stroke-width="2" /><polyline fill="white" points="497,155 514,180 524,210 537,237 559,263 553,309 499,305 497,249 497,195 513,233 500,233" stroke="black" stroke-width="2" /><polyline fill="white" points="466,165 454,202 417,185 374,198 411,179 459,167 442,179" stroke="black" stroke-width="2" /><polyline fill="white" points="424,205 416,255 432,297 465,274 465,218 436,260" stroke="black" stroke-width="2" /><polyline fill="white" points="491,514 489,572 489,630 494,607 496,590 496,530" stroke="black" stroke-width="2" /><polyline fill="white" points="35,556 56,589 5,591 47,583 0,572 35,563" stroke="black" stroke-width="2" /><polyline fill="white" points="0,598 33,623 33,648 14,608" stroke="black" stroke-width="2" /><polyline fill="white" points="633,719 682,730 698,753 669,733 634,742 624,736 620,766" stroke="black" stroke-width="2" /><polyline fill="white" points="743,756 714,785 692,821 701,807 721,786 726,815 701,830 710,858 667,871 701,885 742,870 776,884 786,836 737,843 738,796 734,773 685,832 663,869 729,870 777,847 710,868" stroke="black" stroke-width="2" /><polyline fill="white" points="433,123 453,161 420,172 383,178 413,156 431,132" stroke="black" stroke-width="2" /><polyline fill="white" points="353,208 334,246 339,297 363,266 350,225" stroke="black" stroke-width="2" /><polyline fill="white" points="411,229 415,284 389,293 387,253" stroke="black" stroke-width="2" /><polyline fill="white" points="315,234 306,283 320,259" stroke="black" stroke-width="2" /><polyline fill="white" points="2,615 0,673 0,733 8,783 5,794 0,850 23,877 27,884 28,836 28,786 29,729 30,672 27,619" stroke="black" stroke-width="2" /><polyline fill="white" points="711,747 701,774 688,793 668,821 644,857 617,881 643,854 667,818" stroke="black" stroke-width="2" /><polyline fill="white" points="776,749 769,754 730,762 711,786 687,822 664,859 645,880 667,842 692,807 718,773" stroke="black" stroke-width="2" /><polyline fill="white" points="515,846 522,859 510,862 555,875 579,877 537,879 483,879 427,883 402,872 396,866 422,856 479,853 467,861 448,868 381,859" stroke="black" stroke-width="2" /><polyline fill="white" points="744,865 781,884 785,936 726,935 668,937 614,940 557,943 499,945 442,948 385,951 328,954 275,961 249,973 306,970 364,968 422,966 480,964 538,962 597,961 653,961 712,960 771,959 787,1001 787,1061 758,1090 704,1090 656,1098 606,1102 565,1117 552,1070 537,1025 496,1006 438,1004 380,1006 326,1012 300,1046 294,1100 263,1104 233,1078 200,1101 199,1073 234,1064 195,1049 172,1030 167,987 177,999 199,993 190,973 182,955 207,970 215,1020 224,1023 220,967 250,937 303,930 356,923 411,918 466,913 523,910 581,908 639,908 689,900 707,887 724,882 415,994 357,996 309,1008 315,1014 364,1003 223,1079 194,1072 187,1032 196,1029 205,988 208,1027 210,1054 181,1008 179,944 166,911 181,932 200,946 197,945" stroke="black" stroke-width="2" /><polyline fill="white" points="753,0 787,18 777,60 779,102 778,147 780,191 775,236 780,285 774,335 780,378 787,431 787,477 787,537 785,595 750,576 749,523 749,468 749,414 749,360 751,311 751,255 751,201 751,149 752,97 753,40" stroke="black" stroke-width="2" /><polyline fill="white" points="545,79 567,107 585,149 600,194 599,236 610,285 620,302 626,248 628,194 615,155 591,119" stroke="black" stroke-width="2" /><polyline fill="white" points="264,120 247,160 268,141" stroke="black" stroke-width="2" /><polyline fill="white" points="486,128 486,153" stroke="black" stroke-width="2" /><polyline fill="white" points="160,454 219,465 265,463 298,458 350,462 374,454 426,460 485,461 542,462 600,462 566,478 507,477 448,476 389,475 345,481 288,482 232,482 198,498 156,482 208,478 187,467 270,479 250,462 286,466 375,509 375,569 156,469" stroke="black" stroke-width="2" /><polyline fill="white" points="611,464 606,489 577,516 559,558 542,601 533,649 530,704 531,745 559,715 561,663 568,612 575,559 592,516 594,555 601,602 604,583 604,534 602,554" stroke="black" stroke-width="2" /><polyline fill="white" points="164,507 159,558 160,617 162,671 171,622 170,568 176,524" stroke="black" stroke-width="2" /><polyline fill="white" points="43,544 52,581 57,628 52,655 48,705 81,730 124,717 135,690 129,737 81,747 47,771 43,819 46,866 59,903 74,946 95,974 114,975 117,991 131,981 137,963 151,975 119,997 76,994 44,972 31,927 32,868 32,812 32,756 32,696 38,649 51,604 59,568 132,676 155,802 154,858 151,913 152,967 160,954 162,934 173,885 194,865 192,827 246,823 303,822 326,813 266,813 206,813 187,820 168,811 190,787 243,781 184,780 217,785 98,978" stroke="black" stroke-width="2" /><polyline fill="white" points="161,678 160,733 166,709" stroke="black" stroke-width="2" /><polyline fill="white" points="353,89 367,128 342,97" stroke="black" stroke-width="2" /><polyline fill="white" points="350,133 337,178 370,195 371,170 367,160 382,185 419,191 457,205 472,225 487,186 491,155 464,166 465,202 414,211 392,242 382,281 388,295 374,303 363,292 341,299 364,268 361,216 336,231 348,203 350,222 371,202 375,269 417,304 418,297 455,299 472,295 471,311 467,239" stroke="black" stroke-width="2" /><polyline fill="white" points="264,135 247,167 246,226 254,232 265,263 267,247 264,196 265,143 245,279 232,303 289,300 322,304 332,307 227,305 177,304 156,339 158,381 170,337 190,305 156,396 156,440 188,454 218,455 249,455 285,457 321,457 359,452 294,455 385,453 406,458 440,458 493,461 464,460 528,461 586,461 548,459" stroke="black" stroke-width="2" /><polyline fill="white" points="577,196 588,239 598,289 609,299 577,311 609,312 605,261 591,215 542,310" stroke="black" stroke-width="2" /><polyline fill="white" points="156,495 189,507 216,504 227,501 286,500 338,498 280,498 222,498 166,500" stroke="black" stroke-width="2" /><polyline fill="white" points="14,522 33,536 9,556 24,545" stroke="black" stroke-width="2" /><polyline fill="white" points="0,608 32,627 32,634" stroke="black" stroke-width="2" /><polyline fill="white" points="492,621 489,673 490,732 526,753 497,735 496,676 531,753" stroke="black" stroke-width="2" /><polyline fill="white" points="31,703 31,744 30,775 30,779 29,826 28,866 22,909 18,864 0,892 0,952 16,981 22,1001 10,1022 56,1024 28,1000 30,948 31,889 25,885 17,959 69,1031 96,1028 113,1030 145,1006 163,1038 194,1055 193,1088 192,1100 215,1124 266,1123 283,1150 231,1152 180,1152 143,1169 171,1194 198,1213 229,1232 245,1226 295,1235 310,1230 259,1222 190,1220 151,1207 125,1214 94,1197 61,1191 20,1176 0,1160 12,1112 28,1102 31,1088 58,1084 99,1084 139,1084 156,1109 174,1100 162,1084 152,1040 115,1034 166,1049 214,1117 237,1079 133,1110 104,1117 55,1106 70,1125 117,1127 75,1086 79,1090 9,1104 6,1095 29,1131 37,1201 23,1192 76,1189 96,1177 131,1186 132,1175 188,1235 232,1245 211,1246 247,1236 247,1245 291,1244" stroke="black" stroke-width="2" /><polyline fill="white" points="491,185 480,230 468,264 473,284 485,312 456,305 433,308 379,304 365,304 323,306 284,301 262,298 264,246 250,248 246,300 201,307 180,313 168,354 158,397 160,451 218,453 277,454 336,455 385,452 436,457 495,458 555,458 609,456 610,403 611,344 585,314 535,312 496,300 496,240 473,223 446,302 291,305 377,434 388,436 576,426 582,424 594,422 578,393 596,401" stroke="black" stroke-width="2" /><polyline fill="white" points="339,500 282,501 236,507 296,507 334,517 334,575 334,635 334,695 332,749 275,750 215,750 160,747 203,758 263,758 323,758 344,719 345,660 344,603 344,545 224,503 199,502" stroke="black" stroke-width="2" /><polyline fill="white" points="748,703 691,706 642,716 689,729 709,763 685,799 661,835 635,869 592,882 545,881 491,879 435,883 391,875 406,866 356,861 302,867 248,873 196,881 167,910 186,933 214,965 216,1023 223,1016 219,960 254,935 307,928 361,922 415,916 471,912 528,909 586,907 642,907 691,896 648,886 662,848 686,812 712,778 746,752 787,733 757,703" stroke="black" stroke-width="2" /><polyline fill="white" points="576,744 537,753 563,747" stroke="black" stroke-width="2" /><polyline fill="white" points="771,754 753,768 775,784 776,754" stroke="black" stroke-width="2" /><polyline fill="white" points="515,851 532,872 541,863" stroke="black" stroke-width="2" /><polyline fill="white" points="165,929 174,976 197,993 180,956" stroke="black" stroke-width="2" /><polyline fill="white" points="720,936 662,938 608,942 550,944 492,946 435,949 378,952 322,956 269,963 261,971 319,969 376,966 434,964 493,963 551,961 610,960 665,959 725,959 783,957 751,937" stroke="black" stroke-width="2" /><polyline fill="white" points="204,988 204,992 183,1019 204,1043" stroke="black" stroke-width="2" /><polyline fill="white" points="37,0 50,15 43,36 57,51 47,71 35,63 41,31 38,6" stroke="black" stroke-width="2" /><polyline fill="white" points="594,0 582,16 582,20" stroke="black" stroke-width="2" /><polyline fill="white" points="749,0 749,30 749,60 741,96 742,116 751,81 751,23 746,137 749,177 749,189 750,213 750,257 749,307 747,350 749,366 735,365 718,363 748,389 749,442 748,495 740,536 745,509 738,490 735,463 719,488 712,487 709,480 734,455 742,419 728,410 749,379 720,331 711,334 730,336 734,331 736,323 748,268 745,226 743,441 747,546 749,576 769,600 767,642 783,676 771,702 750,669 752,611 731,586 784,690" stroke="black" stroke-width="2" /><polyline fill="white" points="394,18 349,31 303,37 265,59 232,83 244,79 280,55 325,40 361,38 390,35 427,36 466,36 514,48 554,68 589,93 561,68 523,46 485,32 439,22 411,26 225,96 195,126 211,113 183,144 161,180 145,224 165,186 187,148" stroke="black" stroke-width="2" /><polyline fill="white" points="787,23 780,70 783,28" stroke="black" stroke-width="2" /><polyline fill="white" points="556,32 561,49 564,39" stroke="black" stroke-width="2" /><polyline fill="white" points="787,80 787,135 787,195 782,172 782,130 785,207 778,252 781,299 783,343 785,389 787,332 787,272 787,212" stroke="black" stroke-width="2" /><polyline fill="white" points="632,183 647,228 638,277 630,328 628,381 624,433 622,485 619,537 619,591 611,643 611,697 608,744 595,749 576,776 569,759 582,720 582,662 583,603 583,557 589,528 592,544 600,592 606,596 608,544 608,492 612,441 612,387 612,329 624,281 627,226 600,660" stroke="black" stroke-width="2" /><polyline fill="white" points="685,219 703,231 693,228 677,239" stroke="black" stroke-width="2" /><polyline fill="white" points="0,0 37,11 33,53 44,76 59,53 46,39 57,6 80,9 84,7 58,31 60,42 22,9 36,5 4,34 0,80 0,140 2,170 10,198 17,241 11,278 24,303 40,312 37,281 29,302 13,319 13,329 21,362 27,342 11,354 21,371 11,414 9,424 5,431 3,471 4,506 1,504 42,500 41,476 42,449 46,401 39,356 47,317 47,266 47,222 50,178 68,144 100,145 120,128 114,125 108,117 70,127 59,92 66,54 74,74 80,57 49,54 25,82 40,96 15,77 6,110 46,127 33,140 49,145 24,187 16,215 32,243 30,256 25,280 60,140 77,130 138,272 132,317 134,349 126,380 142,371 140,412 136,427 135,445 138,471 153,483 155,453 144,417 148,367 145,317 148,275 135,344 127,412 120,427 113,440 114,460 87,473 70,496 72,504 105,496 127,493 119,465 127,465 108,440 96,432 70,448 83,468 79,460 91,457 65,452 70,478 58,501 59,526 91,542 108,556 101,583 124,588 117,580 143,564 143,518 134,495 116,517 106,505 114,494 127,506 124,533 111,541 138,548 125,552 84,591 89,514 75,476 62,498 47,512 39,486 32,474 34,457 30,429 41,436 24,444 19,414 31,399 20,394 41,372 42,347 40,289 6,485 77,430 155,498 5,8" stroke="black" stroke-width="2" /><polyline fill="white" points="339,0 357,2 380,1 400,17 445,22 432,12 407,4 417,12 391,8 357,22 334,21 347,23 381,13 453,35 502,46 543,65 579,89 573,77 549,59 509,39 480,28 462,13 497,0 543,2 552,24 549,4 593,4 573,20 594,16 618,3 673,0 701,7 723,5 731,18 743,2 739,31 745,67 742,100 748,126 748,163 740,202 743,185 744,222 747,266 743,310 726,314 724,326 697,323 678,306 684,297 669,272 687,273 696,298 726,282 709,317 702,349 733,343 746,346 716,362 702,370 713,367 740,361 744,394 729,418 737,437 733,455 707,478 685,470 710,454 707,436 683,452 673,461 658,442 657,410 661,395 658,342 660,286 661,245 677,225 703,222 697,239 671,228 662,203 639,174 620,135 642,150 620,133 590,103 560,88 524,64 481,47 432,36 443,0 492,16 509,30 562,36 570,45 552,54 564,22 571,10 599,25 581,42 587,50 606,59 604,74 583,74 591,67 633,78 626,103 638,116 647,125 666,135 654,111 659,127 680,125 685,105 672,78 661,78 651,92 610,111 634,124 654,181 667,204 678,252 700,258 726,233 716,267 705,265 680,249 712,280 701,211 729,171 718,133 717,115 707,103 725,66 742,103 743,154 670,169 738,278 728,290 727,302 726,391 717,405 706,379 691,374 674,359 682,354 685,343 676,337 698,391 679,386 679,425 664,425 657,499 697,457 721,455 697,483 659,536 657,580 656,582 687,70 669,55 688,36 686,13 683,0 641,40 629,49 610,41 615,39 646,36 611,17 629,54 720,25 716,44 721,12" stroke="black" stroke-width="2" /><polyline fill="white" points="334,36 289,51 254,76 222,102 256,74 281,64 323,46 218,107 205,122 193,141 183,158 176,186 158,218 161,198 182,159 156,242 142,258 142,235" stroke="black" stroke-width="2" /><polyline fill="white" points="195,45 196,53 203,88 179,92 197,94 178,74" stroke="black" stroke-width="2" /><polyline fill="white" points="648,224 648,274 639,325 636,377 635,428 631,480 626,531 625,582 620,569 620,517 625,466 627,411 630,359 635,304 643,254 613,618 612,672 614,728 620,703 619,647 626,720" stroke="black" stroke-width="2" /><polyline fill="white" points="85,236 67,250 85,245 96,248" stroke="black" stroke-width="2" /><polyline fill="white" points="72,389 79,399 66,423 77,414" stroke="black" stroke-width="2" /><polyline fill="white" points="736,464 743,478 735,499 729,521 723,547 747,560 724,590 717,593 712,567 692,563 689,545 700,545 719,537 727,515 709,520 693,514 687,496 714,495 710,485 701,533 713,581 704,593 671,592 737,570 690,563" stroke="black" stroke-width="2" /><polyline fill="white" points="369,499 368,552 374,530 374,585" stroke="black" stroke-width="2" /><polyline fill="white" points="100,0 64,21 61,38 83,41 77,69 61,99 71,125 107,117 141,112 125,128 105,142 74,139 52,173 48,216 48,260 48,311 47,356 47,407 45,453 43,496 58,499 59,467 65,432 62,419 76,401 71,386 97,388 98,407 83,439 107,427 78,426 89,405 111,411 114,394 130,414 119,444 114,437 115,448 128,446 146,408 153,361 154,403 152,455 136,403 125,381 133,346 135,322 136,290 130,254 137,223 141,202 166,168 181,140 197,110 178,113 217,90 250,65 288,43 327,25 356,14 342,6 326,8 321,4 284,7 249,0 224,15 190,0 136,0 94,27 128,45 120,40 108,55 137,46 103,74 113,76 126,83 146,81 155,95 143,106 150,84 169,82 188,50 193,67 198,98 178,76 182,25 228,33 229,35 227,68 207,66 255,34 267,34 272,16 288,12 214,6 65,29 90,81 91,90 89,106 85,117 71,161 93,151 75,166 92,191 94,189 128,175 100,194 95,207 76,218 81,228 87,224 97,231 98,247 83,257 63,248 92,234 64,286 84,293 63,292 78,309 81,327 92,364 69,378 88,362 88,384 120,381 89,440 61,496 116,381 154,317 149,349 146,284 151,248 152,295 112,241 112,215 131,207 100,300 85,279 69,198 148,155 132,116 133,112 81,98" stroke="black" stroke-width="2" /><polyline fill="white" points="261,72 228,99 209,130 237,98" stroke="black" stroke-width="2" /><polyline fill="white" points="570,90 595,121 619,157 640,196 654,242 643,291 637,345 635,398 633,448 630,501 627,550 621,596 620,649 621,704 651,709 660,667 679,642 716,646 749,639 735,597 680,596 656,566 656,506 656,448 657,391 657,331 661,278 659,237 660,199 636,171 615,132 586,101 640,143 620,134 666,705" stroke="black" stroke-width="2" /><polyline fill="white" points="2,179 0,237 0,293 0,353 4,409 12,378 10,340 11,296 10,285 12,250 8,209 10,336" stroke="black" stroke-width="2" /><polyline fill="white" points="99,459 75,491 106,486 127,487 109,467 112,461 98,483 96,477" stroke="black" stroke-width="2" /><polyline fill="white" points="147,477 143,523 142,569 142,585 90,591 90,610 126,634 145,652 158,633 158,579 157,529 151,479" stroke="black" stroke-width="2" /><polyline fill="white" points="585,561 580,611 580,671 576,705 577,646 577,586" stroke="black" stroke-width="2" /><polyline fill="white" points="779,597 781,634" stroke="black" stroke-width="2" /><polyline fill="white" points="133,786 136,837 122,877 107,857 123,813 126,884 124,888" stroke="black" stroke-width="2" /></svg>