<?xml version="1.0" encoding="utf-8" ?>
<svg baseProfile="full" height="1280" version="1.1" width="760" xmlns="http://www.w3.org/2000/svg" xmlns:ev="http://www.w3.org/2001/xml-events" xmlns:xlink="http://www.w3.org/1999/xlink"><defs /><polyline fill="white" points="748,703 787,724 754,751 716,773 690,807 666,843 644,881 692,889 650,907 595,907 536,908 479,911 423,915 369,921 315,927 262,934 220,952 223,1007 217,1031 214,974 191,937 170,906 189,883 240,874 294,868 348,862 399,867 396,872 428,884 484,880 537,881 586,880 631,873 658,840 682,804 706,768 695,731 648,718 682,706 740,704" stroke="black" stroke-width="2" /></svg>